<?xml version="1.0" encoding="UTF-8" standalone="no"?><!DOCTYPE svg PUBLIC "-//W3C//DTD SVG 1.1//EN" "http://www.w3.org/Graphics/SVG/1.1/DTD/svg11.dtd"><svg width="100%" height="100%" viewBox="0 0 2947 1172" version="1.1" xmlns="http://www.w3.org/2000/svg" xmlns:xlink="http://www.w3.org/1999/xlink" xml:space="preserve" xmlns:serif="http://www.serif.com/" style="fill-rule:evenodd;clip-rule:evenodd;stroke-linejoin:round;stroke-miterlimit:2;"><rect id="Mesa-de-trabajo6" serif:id="Mesa de trabajo6" x="0" y="-0" width="2946.804" height="1171.53" style="fill:none;"/><g><g transform="matrix(243.349948,0,0,243.349948,2736.059462,924.579244)"></g><text x="172.124px" y="924.579px" style="font-family:'Poppins-ExtraLight', 'Poppins';font-weight:200;font-size:243.35px;fill:#1d1d1d;">desayunos   sorpresa</text><g><g transform="matrix(620.261748,0,0,620.261748,1943.516266,634.949176)"></g><text x="216.087px" y="634.949px" style="font-family:'DancingScript-Regular', 'Dancing Script', cursive;font-size:620.262px;fill:#1d1d1d;">E<tspan x="499.547px " y="634.949px ">n</tspan>am</text><g transform="matrix(620.261748,0,0,620.261748,1762.333297,634.949176)"><path d="M0.242,0.026c-0.023,0 -0.04,-0.006 -0.053,-0.018c-0.013,-0.012 -0.019,-0.028 -0.019,-0.047c0,-0.02 0.009,-0.052 0.027,-0.096c0.018,-0.044 0.027,-0.074 0.027,-0.091c0,-0.007 -0.001,-0.013 -0.003,-0.019c-0.002,-0.006 -0.004,-0.011 -0.006,-0.015c-0.002,-0.004 -0.005,-0.008 -0.01,-0.013c-0.005,-0.005 -0.009,-0.008 -0.011,-0.01c-0.002,-0.002 -0.007,-0.005 -0.014,-0.009c-0.007,-0.005 -0.011,-0.008 -0.012,-0.009c-0.024,0.072 -0.049,0.138 -0.075,0.199c-0.026,0.061 -0.046,0.1 -0.061,0.118l-0.014,-0.015c0.015,-0.019 0.037,-0.06 0.064,-0.124c0.027,-0.064 0.05,-0.129 0.069,-0.193c-0.007,-0.007 -0.01,-0.015 -0.01,-0.024c0,-0.018 0.005,-0.034 0.015,-0.047c0.01,-0.014 0.019,-0.021 0.026,-0.021c0.009,0 0.014,0.008 0.014,0.024c-0,0.003 -0.002,0.009 -0.006,0.02c-0.004,0.01 -0.005,0.016 -0.006,0.017c0,0.008 0.005,0.017 0.016,0.026c0.011,0.009 0.022,0.018 0.035,0.026c0.013,0.008 0.024,0.02 0.035,0.035c0.011,0.016 0.016,0.033 0.016,0.053c0,0.022 -0.008,0.052 -0.025,0.091c-0.017,0.039 -0.025,0.065 -0.025,0.078c0,0.02 0.01,0.03 0.03,0.03c0.029,0 0.061,-0.017 0.096,-0.05c0.035,-0.033 0.059,-0.066 0.074,-0.099l0.013,0.01c-0.021,0.046 -0.051,0.087 -0.09,0.122c-0.039,0.035 -0.079,0.053 -0.119,0.053Z" style="fill:#1d1d1d;fill-rule:nonzero;"/></g><g transform="matrix(620.261748,0,0,620.261748,1762.333297,634.949176)"></g><text x="2020.982px" y="634.949px" style="font-family:'DancingScript-Regular', 'Dancing Script', cursive;font-size:620.262px;fill:#1d1d1d;"><tspan x="2020.982px " y="634.949px ">a</tspan>te</text><g><path d="M1782.616,429.473c0,101.122 -109.261,115.945 -152.116,182.808c-42.862,-66.863 -152.123,-81.686 -152.123,-182.808c0,-18.009 6.206,-32.721 12.856,-42.973c17.206,-26.529 51.188,-41.026 82.24,-35.083c24.499,4.683 45.999,21.86 57.02,44.129c11.027,-22.269 32.527,-39.447 57.027,-44.129c31.059,-5.943 65.034,8.554 82.24,35.083c6.65,10.252 12.856,24.964 12.856,42.973Z" style="fill:#c4000c;fill-rule:nonzero;"/><path d="M1788.727,429.473c-0.48,19.716 -4.169,49.726 -31.774,79.601c-32.962,35.672 -82.369,55.028 -113.828,90.296c-0.048,0.054 -4.172,4.788 -8.459,11.264c-2.165,3.271 -1.993,3.461 -2.904,3.959c-0.416,0.228 -2.189,0.903 -3.479,-0.884c-2.903,-4.02 -10.357,-15.554 -30.305,-31.433c-0.239,-0.191 -2.895,-2.527 -18.186,-13.456c-46.056,-32.918 -102.652,-60.888 -107.638,-130.85c-0.462,-6.487 -2.932,-27.119 9.463,-50.709c8.637,-16.437 20.193,-25.786 27.675,-30.904c0.601,-0.411 4.599,-2.977 6.669,-3.982c22.604,-10.978 57.143,-15.804 87.852,6.665c8.909,6.519 17.61,15.51 24.218,27.019c0.218,0.379 0.605,1.053 1.942,5.109c0.225,0.683 0.425,1.324 0.589,1.865c2.578,-5.977 9.63,-20.283 25.22,-32.771c0.181,-0.145 4.133,-3.246 9.784,-6.411c8.131,-4.554 27.869,-14.098 55.867,-8.774c7.337,1.395 12.879,3.399 15.52,4.4c0.014,0.005 2.758,1.178 6.186,3.007c30.41,16.224 44.34,45.305 45.426,71.622c0.111,2.685 0.141,2.68 0.162,5.368Zm-12.214,0.007l-0.007,0c-0.008,-0.971 0.596,-18.242 -11.245,-36.879c-1.83,-2.879 -11.168,-18.205 -32.689,-27.726c-1.229,-0.544 -1.241,-0.507 -2.458,-1.08c-6.405,-3.014 -36.116,-16.449 -69.027,3.239c-2.225,1.331 -17.751,9.469 -29.172,27.931c-0.473,0.765 -0.715,1.445 -1.342,1.493c-0.417,0.032 -0.765,-0.242 -0.888,-0.508l-0.243,-0.526c-2.391,-3.066 -4.9,-5.67 -5.353,-6.139c-0.548,-0.569 -17.062,-25.992 -49.648,-31.505c-28.049,-4.746 -49.414,9.806 -50.495,10.413c-7.612,4.279 -19.781,11.724 -28.906,27.199c-10.504,17.815 -10.156,33.775 -9.978,41.254c0.091,3.835 0.699,8.654 0.793,9.403c7.427,58.941 59.017,84.512 103.201,118.336c0.063,0.048 7.713,6.012 15.483,13.125c14.141,12.946 21.707,23.233 26.075,29.986c2.048,-2.879 4.743,-6.365 10.549,-12.963c19.183,-21.801 44.379,-37.879 70.027,-56.927c21.353,-15.858 40.949,-32.701 52.962,-54.8c12.159,-22.367 12.456,-42.905 12.363,-53.328Z" style="fill:#1d1d1d;"/><path d="M1630.581,608.074l-45.105,56.027l84.472,-0.211l-39.367,-55.816Z" style="fill:#c4000c;"/><path d="M1586.67,664.263c-0.815,0.141 -1.088,0.337 -1.307,0.495c-0.871,0.627 -2.044,-0.504 -1.814,-1.72c0.114,-0.605 0.159,-0.843 3.701,-6.747c2.151,-3.585 2.037,-3.671 4.73,-6.873c5.278,-6.279 16.877,-18.801 18.37,-20.413c6.584,-7.109 13.258,-14.135 19.842,-21.243c0.239,-0.179 0.239,-0.251 0.53,-0.166c0.054,0.016 0.105,0.04 0.151,0.073c0.2,0.143 24.656,31.193 34.177,43.784c3.257,4.307 3.289,4.294 5.868,9.04c0.357,0.657 0.692,1.328 1.003,2.008c0.264,0.577 0.084,1.811 -0.628,2.235c-0.823,0.489 -1.304,0.017 -1.342,0.01c-0.806,-0.148 -6.07,-0.797 -6.753,-0.837c1.562,-0.132 3.109,-0.406 4.661,-0.626c-1.589,-1.163 -3.298,-2.177 -4.784,-3.468c-0.061,-0.053 -3.904,-5.697 -7.766,-11.714c-3.69,-5.748 -7.367,-11.505 -11.019,-17.277c-4.598,-7.268 -9.135,-14.574 -13.73,-21.844c-5.398,7.757 -10.705,15.577 -16.107,23.331c-1.256,1.803 -11.013,15.807 -16.02,22.304c-0.467,0.606 -0.876,1.266 -1.421,1.802c-2.346,2.307 -4.801,4.501 -7.204,6.749c0.948,0.355 1.904,0.68 2.897,0.85c0.46,0.079 27.559,-2.147 31.282,-2.36c5.095,-0.292 5.094,-0.076 10.189,0.257c0.749,0.049 22.979,1.74 26.419,1.915c0.46,0.023 0.92,0.066 1.381,0.089c-0.46,0.024 -0.921,0.064 -1.38,0.089c-3.439,0.192 -25.661,1.994 -26.409,2.047c-5.093,0.358 -5.091,0.574 -10.188,0.307c-4.185,-0.219 -26.753,-2.002 -31.293,-2.204c-1.651,-0.073 -2.91,-0.088 -3.879,-0.064c-0.514,0.488 -1.025,0.98 -1.53,1.478l-0.626,-1.304Zm75.306,-0.349c0.407,-0.021 0.815,-0.03 1.222,-0.007c-0.406,0.034 -0.814,0.028 -1.222,0.007Z" style="fill:#1d1d1d;"/><path d="M1624.899,662.001c0.101,0.052 0.216,0.073 0.316,0.124c1.221,0.626 1.21,0.64 3.852,2.082c-0.966,1.989 -19.287,39.251 -17.916,58.136c1.3,17.908 17.68,28.639 17.618,46.829c-0.003,1.023 -0.15,6.218 -1.967,12.597c-5.162,18.123 -18.227,30.421 -29.785,43.017c-0.071,0.078 -0.709,0.627 -4.642,5.489c-1.296,1.602 -12.233,14.593 -16.167,28.016c-0.46,1.57 -1.152,5.243 0.919,13.868c5.544,23.089 28.439,59.434 42.407,79.172c0.103,0.145 1.221,1.725 1.265,1.823c0.445,0.995 1.061,1.939 1.29,3.005c0.105,0.488 0.709,3.298 -1.11,6.138c-0.277,0.433 -1.878,2.932 -5.282,3.664c-3.298,0.709 -5.718,-0.841 -6.138,-1.11c-1.855,-1.188 -1.735,-1.344 -2.984,-3.16c-0.09,-0.131 -14.054,-21.054 -25.873,-44.613c-8.778,-17.496 -14.896,-33.299 -16.541,-46.317c-0.418,-3.308 -0.241,-6.607 -0.21,-7.181c0.308,-5.744 1.641,-8.988 4.293,-13.845c4.587,-8.397 10.4,-15.118 18.348,-23.474c2.796,-2.94 2.878,-2.858 5.596,-5.87c14.259,-15.806 25.907,-30.102 27.032,-49.006c0.368,-6.184 -1.515,-11.375 -5.346,-18.474c-6.353,-11.773 -12.912,-21.978 -10.196,-38.512c3.299,-20.084 18.863,-48.163 21.221,-52.4Z" style="fill:#1d1d1d;"/></g></g></g></svg>