<?xml version="1.0" encoding="UTF-8" standalone="no"?>
<!DOCTYPE svg PUBLIC "-//W3C//DTD SVG 1.1//EN" "http://www.w3.org/Graphics/SVG/1.1/DTD/svg11.dtd">
<svg width="100%" height="100%" viewBox="0 0 1800 1800" version="1.1" xmlns="http://www.w3.org/2000/svg" xmlns:xlink="http://www.w3.org/1999/xlink" xml:space="preserve" xmlns:serif="http://www.serif.com/" style="fill-rule:evenodd;clip-rule:evenodd;stroke-linecap:round;stroke-linejoin:round;stroke-miterlimit:1.5;">
    <g id="Mesa-de-trabajo1" serif:id="Mesa de trabajo1" transform="matrix(0.229824,0,0,0.333908,-2091.427171,184.041338)">
        <rect x="9100.128" y="-551.173" width="7832.083" height="5390.701" style="fill:none;"/>
        <g transform="matrix(8.511417,0,0,6.132613,-68522.171194,-23654.75442)">
            <g>
                <g transform="matrix(0.780498,0,0,0.745584,2590.207036,838.478226)">
                    <circle cx="8955.399" cy="4517.752" r="576.655" style="fill:rgb(242,240,235);"/>
                </g>
                <g transform="matrix(1,0,0,1,-3238.484295,3321.527917)">
                    <g transform="matrix(0.754922,-0.425342,0.44526,0.721151,3558.125384,2213.195062)">
                        <g transform="matrix(4.949672,0,0,4.949672,1875.240565,-7457.393484)">
                            <path d="M1609.338,2382.757C1609.153,2382.698 1608.091,2382.355 1607.489,2381.18C1606.844,2379.921 1607.262,2378.833 1607.335,2378.644C1608.258,2376.241 1611.554,2366.783 1611.095,2362.221C1610.528,2356.593 1605.428,2348.332 1604.127,2341.674C1603.867,2340.341 1603.539,2338.658 1603.984,2335.569C1604.016,2335.353 1604.331,2332.326 1606.302,2326.332C1607.57,2322.474 1609.052,2318.937 1609.08,2318.896C1609.179,2318.749 1609.256,2318.582 1609.385,2318.459C1609.782,2318.08 1610.257,2318.095 1610.339,2318.097C1610.424,2318.1 1610.916,2318.116 1611.313,2318.536C1611.369,2318.595 1611.696,2318.94 1611.675,2319.489C1611.661,2319.836 1611.631,2319.832 1611.483,2320.147C1610.961,2321.261 1608.716,2326.221 1607.353,2331.029C1606.234,2334.978 1606.087,2337.113 1606.113,2338.413C1606.144,2339.901 1606.614,2341.444 1606.691,2341.7C1608.818,2348.685 1614.974,2356.148 1615.675,2362.843C1615.77,2363.75 1616.227,2367.913 1614.138,2377.382C1613.699,2379.373 1613.338,2380.711 1613.337,2380.713C1613.134,2381.08 1612.992,2381.489 1612.72,2381.808C1612.456,2382.117 1612.122,2382.374 1611.76,2382.559C1610.585,2383.16 1609.523,2382.817 1609.338,2382.757Z" style="fill:rgb(29,29,29);"/>
                        </g>
                        <g transform="matrix(0.591626,0,0,0.633715,9660.475078,3639.645247)">
                            <path d="M558.437,228.26C558.437,387.83 386.024,411.221 318.399,516.73C250.763,411.221 78.35,387.83 78.35,228.26C78.35,199.842 88.143,176.626 98.636,160.449C125.787,118.586 179.411,95.71 228.411,105.088C267.071,112.477 300.998,139.583 318.388,174.724C335.789,139.583 369.716,112.477 408.377,105.088C457.388,95.71 511,118.586 538.151,160.449C548.644,176.626 558.437,199.842 558.437,228.26Z" style="fill:rgb(196,0,12);fill-rule:nonzero;"/>
                            <path d="M568.766,228.26C567.78,265.68 559.165,311.218 515.333,356.963C465.928,408.523 393.821,439.013 344.979,489.385C342.825,491.606 337.766,496.626 330.208,506.99C324.482,514.842 322.445,518.792 321.808,519.481C320.306,521.107 316.732,521.926 314.53,518.902C309.947,512.61 298.03,494.084 265.421,468.374C264.746,467.842 262.184,465.54 240.307,449.773C167.338,397.187 77.445,353.804 67.982,244.416C66.977,232.798 62.559,199.771 82.369,161.892C98.356,131.323 120.915,116.231 130.565,110.313C130.586,110.3 135.006,107.813 141.076,105.096C146.799,102.535 211.182,72.082 273.54,115.06C298.033,131.94 310.285,152.243 314.264,159.081C314.326,159.187 316.383,164.219 318.242,170.703C322.376,160.98 332.883,139.574 356.221,120.261C356.338,120.164 361.253,116.212 368.185,111.924C411.546,85.105 456.879,90.408 488.218,102.679C488.232,102.684 497.244,106.468 507.951,113.455C547.267,139.112 567.142,180.277 568.543,220.522C568.653,223.669 568.729,223.661 568.766,228.26ZM548.12,228.271L548.108,228.271C548.099,227.121 549.075,200.443 531.077,171.289C527.576,165.618 515.02,145.024 486.325,129.848C481.682,127.392 481.579,127.589 474.967,124.442C448.699,111.942 407.4,104.826 365.699,130.601C364.551,131.31 337.753,145.608 319.941,175.401C319.066,176.865 317.297,176.333 316.863,175.388C316.792,175.231 315.912,173.066 315.902,173.051C315.434,172.335 312.404,168.986 312.09,168.64C308.059,164.185 307.792,164.363 306.419,162.553C278.029,125.146 225.616,99.608 169.73,121.671C156.756,126.793 147.811,133.232 146.41,134.078C118.868,150.701 107.237,170.59 101.77,181.496C89.505,205.963 89.272,227.288 89.796,242.165C90.066,249.812 91.457,258.625 91.681,260.047C105.857,349.859 186.341,389.562 254.73,442.216C255.112,442.51 268.211,452.77 281.258,465.051C301.191,483.813 312.27,498.945 318.626,508.745C322.964,502.722 326.816,497.996 335.935,487.72C390.524,426.207 480.434,390.347 523.393,321.79C547.322,283.603 548.337,248.044 548.12,228.271Z" style="fill:rgb(29,29,29);"/>
                        </g>
                        <g transform="matrix(11.955997,0,0,7.046644,-12207.546007,-16412.224516)">
                            <path d="M1844.78,2892.063L1841.007,2900.014L1848.072,2899.984L1844.78,2892.063Z" style="fill:rgb(196,0,12);"/>
                            <path d="M1841.107,2900.037C1841.039,2900.057 1841.016,2900.084 1840.998,2900.107C1840.925,2900.196 1840.827,2900.035 1840.846,2899.863C1840.855,2899.777 1840.859,2899.743 1841.155,2898.905C1841.335,2898.396 1841.326,2898.384 1841.551,2897.93C1841.992,2897.039 1842.963,2895.262 1843.087,2895.033C1843.638,2894.024 1844.196,2893.027 1844.747,2892.018C1844.767,2891.993 1844.767,2891.983 1844.791,2891.995C1844.796,2891.997 1844.8,2892 1844.804,2892.005C1844.821,2892.025 1846.866,2896.432 1847.662,2898.218C1847.935,2898.83 1847.938,2898.828 1848.153,2899.501C1848.183,2899.595 1848.211,2899.69 1848.237,2899.786C1848.259,2899.868 1848.244,2900.043 1848.185,2900.103C1848.116,2900.173 1848.076,2900.106 1848.072,2900.105C1848.005,2900.084 1847.565,2899.992 1847.508,2899.986C1847.638,2899.967 1847.768,2899.928 1847.897,2899.897C1847.765,2899.732 1847.622,2899.588 1847.497,2899.405C1847.492,2899.397 1847.171,2898.596 1846.848,2897.743C1846.539,2896.927 1846.232,2896.11 1845.926,2895.291C1845.542,2894.259 1845.162,2893.222 1844.778,2892.191C1844.326,2893.292 1843.882,2894.401 1843.431,2895.502C1843.326,2895.758 1842.51,2897.745 1842.091,2898.667C1842.052,2898.753 1842.017,2898.847 1841.972,2898.923C1841.776,2899.25 1841.57,2899.562 1841.369,2899.881C1841.449,2899.931 1841.529,2899.977 1841.612,2900.001C1841.65,2900.012 1843.917,2899.696 1844.228,2899.666C1844.654,2899.625 1844.654,2899.655 1845.08,2899.703C1845.143,2899.709 1847.002,2899.95 1847.29,2899.974C1847.328,2899.978 1847.367,2899.984 1847.405,2899.987C1847.367,2899.99 1847.328,2899.996 1847.29,2900C1847.002,2900.027 1845.144,2900.283 1845.081,2900.29C1844.655,2900.341 1844.655,2900.372 1844.229,2900.334C1843.879,2900.303 1841.991,2900.05 1841.612,2900.021C1841.474,2900.011 1841.368,2900.008 1841.287,2900.012C1841.244,2900.081 1841.201,2900.151 1841.159,2900.222L1841.107,2900.037ZM1847.405,2899.987C1847.439,2899.984 1847.474,2899.983 1847.508,2899.986C1847.474,2899.991 1847.439,2899.99 1847.405,2899.987Z" style="fill:rgb(29,29,29);"/>
                        </g>
                    </g>
                    <g transform="matrix(0.536112,0.884102,-0.925503,0.51213,10906.759065,-10493.120865)">
                        <g transform="matrix(5.347911,-2.693109,2.693109,5.347911,-4315.517795,-4164.477245)">
                            <path d="M1610.314,2319.454L1610.314,2379.735" style="fill:none;"/>
                            <path d="M1610.314,2382.494C1610.128,2382.475 1609.94,2382.475 1609.757,2382.438C1609.673,2382.421 1609.227,2382.331 1608.768,2382.021C1607.825,2381.386 1607.634,2380.453 1607.601,2380.289C1607.526,2379.923 1607.534,2379.921 1607.555,2379.547C1607.836,2374.448 1608.125,2369.351 1608.397,2364.252C1608.476,2362.774 1609.037,2352.232 1609.309,2345.772C1609.373,2344.259 1609.433,2342.746 1609.481,2341.233C1609.556,2338.886 1609.556,2336.282 1609.557,2335.852C1609.557,2333.771 1609.551,2331.691 1609.535,2329.61C1609.529,2328.798 1609.507,2325.882 1609.397,2319.454C1609.396,2319.398 1609.39,2319.075 1609.659,2318.806C1609.743,2318.723 1609.844,2318.654 1609.953,2318.609C1610.006,2318.587 1610.314,2318.46 1610.675,2318.609C1610.726,2318.63 1611.023,2318.752 1611.163,2319.097C1611.209,2319.209 1611.219,2319.332 1611.231,2319.452C1611.24,2319.546 1611.227,2319.641 1611.226,2319.736C1611.213,2320.526 1611.114,2326.632 1611.092,2329.61C1611.048,2335.489 1611.083,2337.997 1611.093,2338.727C1611.105,2339.562 1611.119,2340.398 1611.146,2341.233C1611.28,2345.427 1611.538,2350.668 1611.579,2351.488C1612.272,2365.52 1612.3,2365.518 1613.072,2379.547C1613.093,2379.92 1613.102,2379.923 1613.027,2380.289C1613.01,2380.373 1612.919,2380.817 1612.609,2381.275C1611.971,2382.215 1611.034,2382.405 1610.87,2382.438L1610.314,2382.494Z" style="fill:rgb(29,29,29);"/>
                        </g>
                        <g transform="matrix(0.669679,-0.358106,0.38583,0.721523,2005.145531,4795.937429)">
                            <ellipse cx="10466.373" cy="3849.466" rx="87.04" ry="115.2" style="fill:rgb(29,29,29);"/>
                        </g>
                    </g>
                </g>
                <g transform="matrix(0.661766,0,0,0.632163,3653.501048,1350.885619)">
                    <circle cx="8955.399" cy="4517.752" r="576.655" style="fill:none;stroke:rgb(196,0,12);stroke-width:28.7px;"/>
                </g>
            </g>
        </g>
    </g>
</svg>
