<?xml version="1.0" encoding="UTF-8" standalone="no"?><!DOCTYPE svg PUBLIC "-//W3C//DTD SVG 1.1//EN" "http://www.w3.org/Graphics/SVG/1.1/DTD/svg11.dtd"><svg width="100%" height="100%" viewBox="0 0 866 837" version="1.1" xmlns="http://www.w3.org/2000/svg" xmlns:xlink="http://www.w3.org/1999/xlink" xml:space="preserve" xmlns:serif="http://www.serif.com/" style="fill-rule:evenodd;clip-rule:evenodd;stroke-linejoin:round;stroke-miterlimit:2;"><rect id="Mesa-de-trabajo6" serif:id="Mesa de trabajo6" x="0" y="0" width="865.519" height="836.813" style="fill:none;"/><g><g><path d="M526.046,721.455c-0.939,0.211 -6.33,1.42 -11.849,-2.074c-5.916,-3.746 -6.869,-9.434 -7.036,-10.426c-2.105,-12.566 -11.835,-61.175 -25.266,-79.468c-16.569,-22.568 -59.081,-44.966 -81.37,-70.079c-4.464,-5.029 -10.096,-11.381 -15.962,-25.671c-0.41,-0.998 -6.675,-14.696 -13.348,-45.208c-4.295,-19.638 -6.869,-38.444 -6.854,-38.687c0.054,-0.878 -0.036,-1.784 0.203,-2.63c0.74,-2.617 2.803,-3.747 3.157,-3.941c0.371,-0.203 2.506,-1.373 5.254,-0.581c0.388,0.112 2.651,0.764 3.941,3.157c0.816,1.513 0.676,1.572 0.838,3.287c0.574,6.063 3.477,32.851 9.757,56.779c5.157,19.649 9.899,29.123 13.28,34.597c3.873,6.269 9.755,11.666 10.729,12.559c26.632,24.435 71.64,40.77 91.467,67.55c2.686,3.627 15.101,20.231 30.008,65.852c3.135,9.593 4.959,16.204 4.959,16.217c0.057,2.072 0.481,4.176 0.122,6.217c-0.348,1.981 -1.127,3.918 -2.203,5.616c-3.498,5.516 -8.889,6.726 -9.828,6.936Z" style="fill:#1d1d1d;"/><path d="M374.662,169.677c51.373,87.1 -28.957,151.689 -29.45,229.606c-68.435,-37.263 -163.826,1.79 -215.198,-85.31c-9.149,-15.512 -11.633,-31.128 -11.494,-43.111c0.358,-31.011 20.32,-59.615 48.309,-69.224c22.08,-7.586 48.095,-2.988 68.27,10.967c-2.446,-24.412 6.116,-49.404 23.439,-65.058c21.956,-19.85 56.641,-23.477 83.955,-8.787c10.555,5.676 23.02,15.405 32.169,30.917Z" style="fill:#c4000c;fill-rule:nonzero;"/><path d="M379.926,166.572c11.545,20.722 21.816,48.168 14.206,86.311c-8.577,42.993 -35.506,81.309 -44.178,123.484c-0.383,1.86 -1.344,6.121 -1.859,14.049c-0.39,6.007 -0.156,8.776 -0.259,9.343c-0.242,1.339 -1.8,2.86 -3.896,1.871c-4.361,-2.057 -16.398,-8.588 -41.293,-12.82c-0.515,-0.088 -2.562,-0.574 -18.786,-2.605c-54.114,-6.772 -113.89,-3.434 -153.929,-60.299c-4.253,-6.04 -17.137,-22.739 -19.237,-49.369c-1.695,-21.492 4.942,-36.509 7.955,-42.64c0.007,-0.014 1.458,-2.7 3.677,-6.007c2.092,-3.118 25.097,-39.092 70.711,-34.376c17.916,1.853 30.696,9.252 34.925,11.789c0.065,0.039 2.734,2.167 5.768,5.149c-1.024,-6.55 -2.561,-21.393 3.114,-38.949c0.028,-0.088 1.26,-3.723 3.413,-8.147c13.462,-27.671 38.271,-38.402 58.191,-41.124c0.009,-0.001 5.82,-0.645 13.525,-0.049c28.295,2.188 51.677,18.684 65.347,40.23c1.069,1.685 1.105,1.658 2.605,4.157Zm-10.517,6.211l-0.006,0.004c-0.375,-0.624 -8.467,-15.48 -27.024,-25.984c-3.61,-2.043 -16.638,-9.511 -36.146,-9.169c-3.157,0.055 -3.146,0.193 -7.529,0.463c-17.41,1.072 -40.747,9.6 -53.699,36.203c-1.149,2.36 -8.989,16.38 -8.916,37.066c0.003,0.903 0.169,1.655 -0.403,2.057c-0.388,0.272 -0.885,0.195 -1.148,0.002c-0.087,-0.064 -1.232,-0.982 -1.242,-0.987c-0.47,-0.25 -3.092,-1.167 -3.363,-1.262c-3.488,-1.22 -3.567,-1.043 -4.85,-1.618c-26.51,-11.885 -61.441,-10.072 -82.817,18.768c-4.963,6.695 -7.448,12.899 -7.889,13.782c-8.683,17.352 -8.208,31.704 -7.482,39.3c1.627,17.041 8.374,28.752 13.43,36.714c2.6,4.093 6.145,8.486 6.718,9.194c36.138,44.763 89.934,42.244 141.736,50.43c0.289,0.046 10.268,1.709 20.871,4.491c16.198,4.25 26.715,9.18 33.11,12.619c0.271,-4.592 0.713,-8.329 2.052,-16.679c8.014,-49.984 42.286,-96.582 42.107,-146.915c-0.1,-28.036 -11.031,-47.751 -17.507,-58.479Z" style="fill:#1d1d1d;"/><path d="M345.031,399.399l-10.387,71.173l72.652,-43.096l-62.264,-28.077Z" style="fill:#c4000c;"/><path d="M335.754,470.104c-0.631,0.536 -0.766,0.844 -0.874,1.09c-0.432,0.982 -2.017,0.604 -2.436,-0.56c-0.209,-0.579 -0.291,-0.807 -0.24,-7.692c0.031,-4.18 -0.11,-4.197 0.582,-8.323c1.357,-8.09 4.985,-24.768 5.452,-26.915c2.06,-9.468 4.239,-18.91 6.299,-28.378c0.116,-0.276 0.078,-0.338 0.372,-0.412c0.054,-0.014 0.111,-0.018 0.167,-0.014c0.245,0.021 37.084,14.342 51.681,20.35c6.033,2.483 6.053,2.477 11.531,6.025c0.46,0.298 1.015,1.476 0.594,2.245c-0.46,0.839 -1.114,0.677 -1.151,0.69c-0.769,0.282 -5.634,2.397 -6.242,2.71c1.279,-0.907 2.471,-1.929 3.697,-2.908c-1.96,-0.195 -3.947,-0.199 -5.882,-0.557c-0.079,-0.015 -6.257,-2.924 -12.64,-6.145c-6.098,-3.077 -12.19,-6.167 -18.268,-9.284c-7.653,-3.924 -15.273,-7.912 -22.924,-11.84c-0.708,9.424 -1.307,18.856 -2.021,28.279c-0.166,2.191 -1.455,19.21 -2.467,27.35c-0.094,0.759 -0.111,1.535 -0.309,2.275c-0.848,3.179 -1.849,6.316 -2.776,9.473c0.997,-0.176 1.985,-0.382 2.927,-0.74c0.436,-0.166 22.647,-15.85 25.745,-17.925c4.241,-2.84 4.349,-2.654 8.907,-4.955c0.67,-0.338 20.677,-10.175 23.729,-11.772c0.408,-0.213 0.826,-0.411 1.235,-0.624c-0.384,0.255 -0.761,0.522 -1.144,0.778c-2.865,1.912 -21.089,14.754 -21.707,15.18c-4.205,2.896 -4.093,3.08 -8.619,5.44c-3.715,1.938 -24.06,11.867 -28.074,14c-1.459,0.775 -2.552,1.402 -3.374,1.915c-0.195,0.682 -0.385,1.365 -0.567,2.05l-1.202,-0.805Zm64.687,-38.558c0.34,-0.225 0.686,-0.44 1.049,-0.626c-0.333,0.236 -0.687,0.437 -1.049,0.626Z" style="fill:#1d1d1d;"/></g><g><path d="M558.607,329.671l-241.12,368.628" style="fill:none;"/><path d="M306.452,715.169c-1.059,-0.857 -2.208,-1.613 -3.177,-2.57c-0.447,-0.441 -2.811,-2.775 -4.384,-6.504c-3.229,-7.655 -0.662,-14.125 -0.211,-15.259c1.009,-2.543 1.07,-2.521 2.692,-4.726c22.11,-30.053 44.273,-60.067 66.327,-90.161c6.393,-8.724 51.99,-70.942 79.497,-109.355c6.441,-8.995 12.858,-18.008 19.206,-27.069c9.844,-14.051 20.262,-29.973 21.984,-32.606c8.324,-12.722 16.609,-25.469 24.835,-38.253c3.213,-4.993 14.742,-22.91 39.778,-62.664c0.218,-0.346 1.473,-2.34 4.198,-2.909c0.842,-0.176 1.736,-0.193 2.581,-0.032c2.803,0.533 4.177,2.54 4.415,2.888c0.228,0.333 1.555,2.272 1.034,4.943c-0.169,0.863 -0.599,1.66 -1.006,2.439c-0.32,0.612 -0.777,1.143 -1.164,1.715c-3.238,4.779 -28.268,41.728 -40.315,59.848c-23.785,35.775 -33.603,51.253 -36.458,55.753c-3.271,5.156 -6.525,10.324 -9.703,15.538c-15.959,26.183 -35.337,59.262 -38.369,64.439c-51.892,88.583 -51.714,88.683 -103.1,177.557c-1.37,2.369 -1.326,2.415 -3.251,4.36c-0.44,0.445 -2.77,2.797 -6.499,4.354c-7.656,3.196 -14.147,0.609 -15.283,0.156l-3.627,-1.881Z" style="fill:#1d1d1d;"/><path d="M674.688,138.615c37.844,23.448 41.422,86.298 7.985,140.263c-33.437,53.965 -91.308,78.741 -129.152,55.293c-37.844,-23.448 -41.422,-86.298 -7.985,-140.263c33.437,-53.965 91.308,-78.741 129.152,-55.293Z" style="fill:#1d1d1d;"/></g></g></svg>