<?xml version="1.0" encoding="UTF-8" standalone="no"?><!DOCTYPE svg PUBLIC "-//W3C//DTD SVG 1.1//EN" "http://www.w3.org/Graphics/SVG/1.1/DTD/svg11.dtd"><svg width="100%" height="100%" viewBox="0 0 2910 2569" version="1.1" xmlns="http://www.w3.org/2000/svg" xmlns:xlink="http://www.w3.org/1999/xlink" xml:space="preserve" xmlns:serif="http://www.serif.com/" style="fill-rule:evenodd;clip-rule:evenodd;stroke-linejoin:round;stroke-miterlimit:2;"><rect id="Mesa-de-trabajo6" serif:id="Mesa de trabajo6" x="0" y="0" width="2909.053" height="2568.28" style="fill:none;"/><g><g transform="matrix(620.261748,0,0,620.261748,1526.345652,1757.071545)"><path d="M0.079,0.032c-0.029,0 -0.052,-0.009 -0.067,-0.027c-0.015,-0.018 -0.023,-0.041 -0.023,-0.069c-0,-0.043 0.013,-0.086 0.038,-0.129c0.025,-0.042 0.053,-0.064 0.083,-0.064c0.006,0 0.016,0.003 0.03,0.008c0.004,-0.031 0.015,-0.056 0.033,-0.076c0.018,-0.02 0.042,-0.03 0.071,-0.03c0.053,0 0.079,0.027 0.079,0.081c0,0.052 -0.021,0.108 -0.062,0.169c0.012,0.004 0.022,0.006 0.029,0.006c0.024,-0 0.046,-0.006 0.066,-0.019c0.02,-0.013 0.036,-0.031 0.05,-0.056c0.014,-0.024 0.024,-0.046 0.032,-0.066c0.008,-0.019 0.016,-0.044 0.026,-0.073c-0.006,-0.007 -0.009,-0.016 -0.009,-0.025c0,-0.019 0.006,-0.036 0.018,-0.051c0.012,-0.015 0.022,-0.023 0.03,-0.023c0.015,0 0.022,0.01 0.022,0.031c0,0.003 -0.002,0.009 -0.006,0.019c-0.004,0.01 -0.005,0.015 -0.005,0.017c0,0.006 0.006,0.013 0.017,0.021c0.011,0.008 0.024,0.016 0.037,0.024c0.013,0.008 0.026,0.02 0.037,0.036c0.011,0.016 0.017,0.034 0.017,0.053c0,0.022 -0.008,0.052 -0.024,0.089c-0.016,0.037 -0.024,0.061 -0.024,0.072c0,0.016 0.008,0.024 0.025,0.024c0.029,-0 0.06,-0.017 0.096,-0.049c0.035,-0.033 0.059,-0.066 0.074,-0.098l0.02,0.014c-0.023,0.049 -0.054,0.091 -0.093,0.128c-0.039,0.037 -0.079,0.055 -0.121,0.055c-0.025,0 -0.045,-0.006 -0.061,-0.019c-0.016,-0.013 -0.023,-0.03 -0.023,-0.051c0,-0.02 0.009,-0.051 0.026,-0.092c0.017,-0.041 0.026,-0.07 0.026,-0.085c0,-0.027 -0.018,-0.05 -0.053,-0.069c-0.007,0.021 -0.012,0.035 -0.015,0.044c-0.003,0.009 -0.009,0.023 -0.017,0.043c-0.008,0.02 -0.016,0.035 -0.022,0.045c-0.006,0.01 -0.015,0.022 -0.026,0.037c-0.011,0.015 -0.023,0.026 -0.034,0.033c-0.011,0.007 -0.024,0.014 -0.04,0.02c-0.016,0.006 -0.033,0.009 -0.05,0.009c-0.017,0 -0.033,-0.003 -0.048,-0.009c-0.054,0.067 -0.106,0.1 -0.157,0.1Zm0.151,-0.16c0.032,-0.047 0.048,-0.093 0.048,-0.138c0,-0.015 -0.003,-0.026 -0.008,-0.034c-0.005,-0.008 -0.011,-0.012 -0.018,-0.012c-0.014,0 -0.027,0.009 -0.04,0.026c-0.012,0.017 -0.018,0.038 -0.018,0.063c0,0.032 0.012,0.064 0.036,0.095Zm-0.131,0.11c0.026,0 0.06,-0.024 0.101,-0.073c-0.039,-0.032 -0.06,-0.081 -0.061,-0.148c-0.015,0.017 -0.03,0.044 -0.047,0.081c-0.017,0.037 -0.025,0.066 -0.025,0.087c0,0.035 0.011,0.053 0.032,0.053Z" style="fill:#1d1d1d;fill-rule:nonzero;"/></g><g transform="matrix(620.261748,0,0,620.261748,1526.345652,1757.071545)"></g><g transform="matrix(620.261748,0,0,620.261748,1760.536234,1757.071545)"></g><g transform="matrix(620.261748,0,0,620.261748,3138.405935,1757.071545)"></g><text x="244.265px" y="1757.072px" style="font-family:'DancingScript-Bold', 'Dancing Script', cursive;font-weight:700;font-size:620.262px;fill:#1d1d1d;">E<tspan x="548.193px " y="1757.072px ">n</tspan>am<tspan x="1989.061px " y="1757.072px ">a</tspan>te</text><path d="M1809.914,1045.374l-130.728,162.383l244.825,-0.612l-114.098,-161.771Z" style="fill:#c4000c;"/><path d="M1683.819,1211.106c-1.587,0.133 -3.311,0.312 -5.128,0.553c-3.105,0.412 -5.573,-2.516 -5.125,-5.837c0.002,-0.013 0.244,-1.025 0.247,-1.033c0.695,-1.719 0.847,-2.094 12.734,-19.367c9.115,-13.246 9.168,-13.218 19.492,-25.548c24.84,-29.664 72.954,-84.734 79.351,-92.055c6.682,-7.648 12.735,-15.91 20.124,-22.878c1.775,-1.673 2.296,-1.273 4.011,0.119c0.371,-0.277 0.444,-0.274 0.797,0.026l2.457,-1.648c17.521,23.582 35.202,47.045 52.723,70.627c3.729,5.019 27.233,36.654 46.291,62.973c3.134,4.329 6.349,8.603 9.34,13.032c2.475,3.666 4.716,7.486 7.051,11.244c0.417,0.67 0.836,1.341 1.203,2.039c0.189,0.36 1.305,2.481 0.226,5.075c-0.158,0.379 -1.17,2.813 -4.028,3.189c-0.264,0.035 -0.532,0.045 -0.798,0.033c-0.777,-0.035 -0.761,-0.232 -9.685,-0.786c-3.873,-0.241 -7.748,-0.694 -11.628,-0.592c-6.267,0.164 -12.508,0.863 -18.755,1.388c-10.338,0.868 -20.665,1.874 -30.999,2.788c-10.523,0.93 -21.04,1.934 -31.572,2.742c-6.818,0.523 -13.641,1.032 -20.475,1.251c-4.184,0.135 -19.783,-1.047 -21.501,-1.177c-11.044,-0.836 -22.082,-1.746 -33.123,-2.629c-10.962,-0.877 -21.917,-1.856 -32.885,-2.653c-6.923,-0.503 -13.846,-1.172 -20.787,-1.247c-0.839,-0.009 -4.099,-0.044 -8.637,0.298c-0.208,0.231 -0.415,0.463 -0.622,0.694l-0.298,-0.621Zm126.155,-159.426c-5.022,7.855 -11.197,14.945 -16.751,22.444c-5.787,7.813 -49.314,66.576 -72.991,97.176c-3.033,3.92 -5.888,7.995 -9.19,11.691c-5.822,6.517 -11.951,12.755 -17.977,19.085c7.022,0.598 14.041,1.373 21.077,1.281c10.996,-0.144 21.914,-1.885 32.871,-2.817c11.036,-0.939 22.069,-1.903 33.109,-2.795c1.717,-0.139 17.31,-1.398 21.494,-1.284c6.835,0.186 13.661,0.66 20.481,1.149c10.537,0.755 21.058,1.707 31.586,2.584c10.339,0.862 20.67,1.817 31.013,2.632c6.249,0.493 12.493,1.307 18.762,1.294c3.444,-0.007 6.876,-0.351 10.309,-0.693c-1.717,-1.488 -3.402,-3.005 -4.873,-4.725c-3.474,-4.061 -6.116,-8.766 -9.142,-13.172c-18.397,-26.785 -40.31,-59.543 -43.786,-64.74c-15.386,-23 -30.624,-46.099 -45.992,-69.111Z" style="fill:#1d1d1d;"/><path d="M2250.597,518.328c0,293.081 -316.67,336.043 -440.877,529.831c-124.227,-193.788 -440.897,-236.75 -440.897,-529.831c0,-52.195 17.987,-94.836 37.259,-124.548c49.868,-76.89 148.359,-118.906 238.357,-101.681c71.007,13.572 133.32,63.357 165.26,127.9c31.96,-64.543 94.274,-114.329 165.282,-127.9c90.018,-17.224 188.487,24.792 238.355,101.681c19.272,29.712 37.259,72.353 37.259,124.548Z" style="fill:#c4000c;fill-rule:nonzero;"/><path d="M2270.02,518.328c-1.299,43.926 -8.849,110.429 -53.346,178.805c-60.001,92.201 -160.877,148.394 -252.99,211.066c-40.269,27.398 -84.699,60.252 -120.6,99.739c-2.323,2.555 -16.022,18.556 -28.099,37.248c-3.048,4.717 -2.966,4.791 -3.505,5.215c-1.104,0.87 -3.051,0.923 -4.162,-0.695c-3.869,-5.636 -18.85,-29.337 -49.249,-59.475c-23.351,-23.15 -48.811,-43.46 -72.851,-61.186c-0.26,-0.192 -12.857,-9.238 -36.789,-25.015c-97.057,-63.984 -202.372,-121.971 -260.401,-224.111c-8.35,-14.697 -22.549,-42.058 -32.304,-81.623c-2.452,-9.945 -4.328,-21.27 -4.636,-23.132c-1.527,-9.218 -2.421,-16.873 -2.929,-21.682c-0.004,-0.035 -1.95,-22.25 -0.929,-42.469c1.547,-30.641 8.324,-53.136 12.511,-65.405c18.891,-55.35 51.549,-87.537 57.729,-93.726c44.754,-44.822 107.587,-72.355 173.096,-74.089c23.551,-0.624 78.237,0.929 136.144,40.291c16.594,11.28 49.41,36.49 74.89,80.144c0.588,1.008 3.667,7.912 6.377,15.039c0.713,1.876 1.311,3.53 1.617,4.388c1.253,-3.067 3.549,-8.478 7.304,-15.966c0.489,-0.976 3.225,-5.395 3.513,-5.86c27.716,-44.772 62.181,-67.737 69.242,-72.928c56.049,-41.206 110.12,-44.674 131.361,-45.131c22.372,-0.481 41.091,2.294 53.673,4.814c0.303,0.061 11.613,2.4 26.115,7.309c25.833,8.745 89.089,34.705 131.449,102.453c35.655,57.024 37.381,109.833 37.765,125.983Zm-38.845,-0c0.236,-12.623 1.188,-61.575 -31.392,-114.836c-27.299,-44.628 -73.777,-80.013 -130.262,-95.603c-8.001,-2.208 -47.205,-14.984 -96.974,-6.864c-36.84,6.011 -64.555,20.932 -78.748,29.562c-0.119,0.072 -7.336,4.614 -16.271,11.537c-36.436,28.234 -53.807,58.536 -56.848,62.82c-6.451,9.089 -10.065,15.564 -10.286,15.772c-0.518,0.488 -1.327,0.252 -1.568,-0.284c-0.56,-1.249 -0.511,-1.267 -0.57,-1.37c-0.395,-0.695 -3.206,-4.637 -3.49,-5.036c-5.154,-7.227 -8.459,-11.018 -9.157,-12.066c-37.702,-56.628 -102.322,-99.931 -176.33,-103.141c-32.354,-1.403 -62.023,4.715 -87.848,14.581c-22.209,8.484 -81.434,34.919 -116.315,101.307c-8.775,16.701 -19.056,41.38 -23.015,73.858c-1.752,14.368 -1.59,24.995 -1.287,36.214c0.359,13.313 1.225,20.891 1.617,26.351c0.369,5.156 1.554,22.164 6.521,45.598c3.294,15.54 11.353,47.759 32.277,84.403c56.391,98.755 166.216,162.712 259.305,238.622c7.386,6.023 44.33,33.857 77.719,70.034c22.151,24.001 34.703,42.514 41.538,53.164c12.109,-17.824 20.007,-27.05 28.475,-36.903c4.727,-5.501 22.718,-28.297 60.77,-61.354c46.045,-40 102.457,-78.593 150.013,-114.886c91.377,-69.734 169.342,-145.05 180.821,-268.559c1.911,-20.559 1.456,-37.053 1.307,-42.923Z" style="fill:#1d1d1d;"/><path d="M1761.228,1358.855c2.01,-2.869 7.736,-13.059 16.152,-51.05c3,-13.541 6.955,-34.382 7.467,-37.129l1.011,-5.495c0.104,-0.571 1.104,-3.052 4.84,-13.741c4.844,-13.861 4.893,-14.523 6.859,-19.867c5.069,-13.778 8.223,-22.947 8.64,-24.148c-0.858,-0.626 -2.277,0.056 -3.136,-0.57c-0.864,-0.63 -1.387,-1.763 -1.519,-2.824c-0.324,-2.588 3.614,-3.018 4.015,-3.062c0.013,-0.001 5.048,0.145 5.056,0.147c1.632,0.397 3.334,0.575 4.896,1.193c0.376,0.149 4.059,1.605 3.062,4.015c-0.408,0.988 -1.213,1.942 -2.212,2.321c-0.993,0.377 -2.182,-0.654 -3.175,-0.277c1.011,16.986 1.392,28.611 1.393,28.838c0.056,6.941 0.107,18.147 -0.074,31.261c-0.008,0.543 0.035,1.089 -0.024,1.629c-0.082,0.751 -1.985,10.679 -2.163,11.607c-0.017,0.087 -3.081,16.963 -8.454,38.182c-12.099,47.779 -21.93,57.419 -27.402,61.33c-4.498,3.215 -8.411,3.81 -13.582,4.081c-52.261,2.738 -111.826,-63.704 -183.085,-92.513c-0.012,-0.005 -5.697,-2.229 -12.876,-4.392c-33.253,-10.02 -63.673,-8.269 -92.683,7.169c-6.611,3.518 -17.548,12.201 -31.69,21.749c-14.131,9.541 -37.989,24.642 -72.428,38.383c-0.4,0.159 -12.431,4.865 -29.122,9.752c-27.267,7.984 -71.973,18.172 -134.372,18.451c-62.069,0.278 -119.923,-50.213 -202.123,-85.852c-0.854,-0.37 -15.122,-6.577 -29.857,-11.858c-10.134,-3.632 -46.423,-16.184 -83.611,-19.536c-22.196,-2.001 -79.265,-5.228 -168.094,26.69c-50.732,18.229 -90.023,40.266 -104.132,48.71c-1.875,1.122 -2.977,1.806 -3.234,1.966c-1.634,1.014 -1.719,1.077 -3.603,0.696c-0.017,-0.003 -2.904,-1.92 -2.906,-1.929c-0.216,-1.138 -0.869,-2.281 -0.639,-3.416c0.426,-2.101 0.65,-2.077 2.41,-3.296c3.802,-2.631 40.409,-27.639 92.994,-51.049c120.797,-53.776 196.809,-42.015 221.615,-37.978c21.023,3.421 45.105,9.067 74.742,19.989c12.769,4.706 27.054,11.134 29.374,12.178c34.717,15.622 68.881,35.926 95.653,49.957c29.456,15.437 55.986,26.75 81.323,26.678c75.806,-0.216 126.845,-15.942 152.839,-25.471c8.141,-2.984 36.399,-12.146 74.082,-35.36c19.301,-11.89 22.516,-15.36 32.865,-20.314c41.516,-19.874 81.977,-15.331 119.912,-0.605c7.735,3.002 24.691,8.875 58.231,28.511c43.779,25.631 79.971,52.056 107.639,55.954c3.926,0.553 7.097,0.47 9.124,0.294Z" style="fill:#1d1d1d;"/><g transform="matrix(243.349948,0,0,243.349948,2648.505474,2042.470062)"></g><text x="221.82px" y="2042.47px" style="font-family:'Poppins-ExtraLight', 'Poppins';font-weight:200;font-size:243.35px;fill:#1d1d1d;">desayunos sorpresa</text></g></svg>